<?xml version="1.0" encoding="UTF-8" standalone="no"?>
<svg width="460" xmlns="http://www.w3.org/2000/svg" height="620">
 <defs>
  <linearGradient id="linearGradient0" y2="100%" x2="50%" x1="50%">
   <stop stop-color="#ffb2b2" offset="0"/>
   <stop stop-color="#cc1414" offset="1"/>
  </linearGradient>
  <linearGradient id="linearGradient1" y2="100%" x2="50%" x1="50%">
   <stop stop-color="#ffffb2" offset="0"/>
   <stop stop-color="#cccc14" offset="1"/>
  </linearGradient>
  <linearGradient id="linearGradient4" y2="100%" x2="50%" x1="50%">
   <stop stop-color="#d9ffb2" offset="0"/>
   <stop stop-color="#70cc14" offset="1"/>
  </linearGradient>
 </defs>
 <g>
  <title>Layer 1</title>
  <g transform="matrix(1,0,0,1,120,20)">
   <g stroke="#c66" fill="url(#linearGradient0)">
    <path d="m20,0l80,0c26,0 26,40 0,40l-80,0c-26,0 -26,-40 0,-40z"/>
   </g>
   <rect stroke-opacity="0" fill-opacity="0" height="32.7" width="50.2" stroke="#fff" y="3.67" x="34.9" stroke-width="0" fill="#fff"/>
   <text font-size="13.3" text-anchor="middle" y="17.7" x="60" font-family="Arial" fill="rgb(0,0,0)">Memory</text>
   <text font-size="13.3" text-anchor="middle" y="33.033" x="60" font-family="Arial" fill="rgb(0,0,0)">request</text>
  </g>
  <g transform="matrix(1,0,0,1,120,100)">
   <polygon stroke="#cc6" points="60 0 120 30 60 60 0 30" fill="url(#linearGradient1)"/>
   <rect stroke-opacity="0" fill-opacity="0" height="32.7" width="51.7" stroke="#fff" y="13.7" x="34.2" stroke-width="0" fill="#fff"/>
   <text font-size="13.3" text-anchor="middle" y="27.7" x="60" font-family="Arial" fill="rgb(0,0,0)">Request</text>
   <text font-size="13.3" text-anchor="middle" y="43.033" x="60" font-family="Arial" fill="rgb(0,0,0)">type</text>
  </g>
  <g transform="matrix(1,0,0,1,20,160)">
   <polygon stroke="#cc6" points="60 0 120 30 60 60 0 30" fill="url(#linearGradient1)"/>
   <rect stroke-opacity="0" fill-opacity="0" height="17.3" width="65.8" stroke="#fff" y="21.3" x="27.1" stroke-width="0" fill="#fff"/>
   <text font-size="13.3" text-anchor="middle" y="35.366" x="60" font-family="Arial" fill="rgb(0,0,0)">Cache hit?</text>
  </g>
  <g transform="matrix(1,0,0,1,220,160)">
   <polygon stroke="#cc6" points="60 0 120 30 60 60 0 30" fill="url(#linearGradient1)"/>
   <rect stroke-opacity="0" fill-opacity="0" height="17.3" width="65.8" stroke="#fff" y="21.3" x="27.1" stroke-width="0" fill="#fff"/>
   <text font-size="13.3" text-anchor="middle" y="35.366" x="60" font-family="Arial" fill="rgb(0,0,0)">Cache hit?</text>
  </g>
  <g stroke="#000" fill="#000">
   <path d="m180,60l0,40" fill="none"/>
   <path d="m0,0z"/>
   <path d="m187.5,85l-7.5,15l-7.5,-15l7.5,4.5l7.5,-4.5z"/>
  </g>
  <g stroke="#000" fill="#000">
   <path d="m240,130l30,0q10,0 10,10l0,20" fill="none"/>
  </g>
  <g stroke="#000" fill="#000">
   <path d="m0,0z"/>
  </g>
  <g stroke="#000" fill="#000">
   <path d="m287.5,145l-7.5,15l-7.5,-15l7.5,4.5l7.5,-4.5z"/>
  </g>
  <rect stroke-opacity="0" height="17.3" width="32.9" stroke="#fff" y="112" x="240" stroke-width="0" fill="#fff"/>
  <text font-size="13.3" text-anchor="middle" y="125.764" x="256.422" font-family="Arial" fill="rgb(0,0,0)">Write</text>
  <g stroke="#000" fill="#000">
   <path d="m120,130l-30,0q-10,0 -10,10l0,20" fill="none"/>
  </g>
  <g stroke="#000" fill="#000">
   <path d="m0,0z"/>
  </g>
  <g stroke="#000" fill="#000">
   <path d="m87.5,145l-7.5,15l-7.5,-15l7.5,4.5l7.5,-4.5z"/>
  </g>
  <rect stroke-opacity="0" height="17.3" width="33.9" stroke="#fff" y="111" x="86" stroke-width="0" fill="#fff"/>
  <text font-size="13.3" text-anchor="middle" y="125.366" x="102.963" font-family="Arial" fill="rgb(0,0,0)">Read</text>
  <g transform="matrix(1,0,0,1,320,260)">
   <rect height="60" width="120" stroke="#9c6" y="0" x="0" fill="url(#linearGradient4)"/>
   <rect stroke-opacity="0" fill-opacity="0" height="32.7" width="87.7" stroke="#fff" y="13.7" x="16.1" stroke-width="0" fill="#fff"/>
   <text font-size="13.3" text-anchor="middle" y="27.7" x="60" font-family="Arial" fill="rgb(0,0,0)">Write data into</text>
   <text font-size="13.3" text-anchor="middle" y="43.033" x="60" font-family="Arial" fill="rgb(0,0,0)">cache block</text>
  </g>
  <g transform="matrix(1,0,0,1,220,360)">
   <rect height="60" width="120" stroke="#9c6" y="0" x="0" fill="url(#linearGradient4)"/>
   <rect stroke-opacity="0" fill-opacity="0" height="32.7" width="87.7" stroke="#fff" y="13.7" x="16.1" stroke-width="0" fill="#fff"/>
   <text font-size="13.3" text-anchor="middle" y="27.7" x="60" font-family="Arial" fill="rgb(0,0,0)">Write data into</text>
   <text font-size="13.3" text-anchor="middle" y="43.033" x="60" font-family="Arial" fill="rgb(0,0,0)">lower memory</text>
  </g>
  <g transform="matrix(1,0,0,1,20,260)">
   <rect height="60" width="120" stroke="#9c6" y="0" x="0" fill="url(#linearGradient4)"/>
   <rect stroke-opacity="0" fill-opacity="0" height="32.7" width="92.4" stroke="#fff" y="13.7" x="13.8" stroke-width="0" fill="#fff"/>
   <text font-size="13.3" text-anchor="middle" y="27.7" x="60" font-family="Arial" fill="rgb(0,0,0)">Locate a cache</text>
   <text font-size="13.3" text-anchor="middle" y="43.033" x="60" font-family="Arial" fill="rgb(0,0,0)">block to use</text>
  </g>
  <g transform="matrix(1,0,0,1,20,360)">
   <rect height="60" width="120" stroke="#9c6" y="0" x="0" fill="url(#linearGradient4)"/>
   <rect stroke-opacity="0" fill-opacity="0" height="48" width="111" stroke="#fff" y="6" x="4.54" stroke-width="0" fill="#fff"/>
   <text font-size="13.3" text-anchor="middle" y="20.033" x="60" font-family="Arial" fill="rgb(0,0,0)">Read data from</text>
   <text font-size="13.3" text-anchor="middle" y="35.366" x="60" font-family="Arial" fill="rgb(0,0,0)">lower memory into</text>
   <text font-size="13.3" text-anchor="middle" y="50.7" x="60" font-family="Arial" fill="rgb(0,0,0)">the cache block</text>
  </g>
  <g transform="matrix(1,0,0,1,20,460)">
   <rect height="60" width="120" stroke="#9c6" y="0" x="0" fill="url(#linearGradient4)"/>
   <rect stroke-opacity="0" fill-opacity="0" height="17.3" width="71.7" stroke="#fff" y="21.3" x="24.2" stroke-width="0" fill="#fff"/>
   <text font-size="13.3" text-anchor="middle" y="35.366" x="60" font-family="Arial" fill="rgb(0,0,0)">Return data</text>
  </g>
  <g stroke="#000" fill="#000">
   <path d="m80,220l0,40" fill="none"/>
  </g>
  <g stroke="#000" fill="#000">
   <path d="m0,0z"/>
  </g>
  <g stroke="#000" fill="#000">
   <path d="m87.5,245l-7.5,15l-7.5,-15l7.5,4.5l7.5,-4.5z"/>
  </g>
  <rect stroke-opacity="0" height="17.3" width="19" stroke="#fff" y="220" x="81.1" stroke-width="0" fill="#fff"/>
  <text font-size="13.3" text-anchor="middle" y="233.571" x="90.602" font-family="Arial" fill="rgb(0,0,0)">No</text>
  <g stroke="#000" fill="#000">
   <path d="m80,320l0,40" fill="none"/>
   <path d="m0,0z"/>
   <path d="m87.5,345l-7.5,15l-7.5,-15l7.5,4.5l7.5,-4.5z"/>
  </g>
  <g stroke="#000" fill="#000">
   <path d="m80,420l0,40" fill="none"/>
   <path d="m0,0z"/>
   <path d="m87.5,445l-7.5,15l-7.5,-15l7.5,4.5l7.5,-4.5z"/>
  </g>
  <g stroke="#000" fill="#000">
   <path d="m340,190l30,0q10,0 10,10l0,60" fill="none"/>
  </g>
  <g stroke="#000" fill="#000">
   <path d="m0,0z"/>
  </g>
  <g stroke="#000" fill="#000">
   <path d="m387.5,245l-7.5,15l-7.5,-15l7.5,4.5l7.5,-4.5z"/>
  </g>
  <rect stroke-opacity="0" height="17.3" width="23.8" stroke="#fff" y="171" x="340" stroke-width="0" fill="#fff"/>
  <text font-size="13.3" text-anchor="middle" y="185.366" x="351.844" font-family="Arial" fill="rgb(0,0,0)">Yes</text>
  <g stroke="#000" fill="#000">
   <path d="m280,220l0,140" fill="none"/>
  </g>
  <g stroke="#000" fill="#000">
   <path d="m0,0z"/>
  </g>
  <g stroke="#000" fill="#000">
   <path d="m287.5,345l-7.5,15l-7.5,-15l7.5,4.5l7.5,-4.5z"/>
  </g>
  <rect stroke-opacity="0" height="17.3" width="19" stroke="#fff" y="220" x="281" stroke-width="0" fill="#fff"/>
  <text font-size="13.3" text-anchor="middle" y="234.174" x="290.602" font-family="Arial" fill="rgb(0,0,0)">No</text>
  <g stroke="#000" fill="#000">
   <path d="m380,320l0,60q0,10 -10,10l-30,0" fill="none"/>
   <path d="m0,0z"/>
   <path d="m355,397.5l-15,-7.5l15,-7.5l-4.5,7.5l4.5,7.5z"/>
  </g>
  <g transform="matrix(1,0,0,1,120,560)">
   <g stroke="#c66" fill="url(#linearGradient0)">
    <path d="m20,0l80,0c26,0 26,40 0,40l-80,0c-26,0 -26,-40 0,-40z"/>
   </g>
   <rect stroke-opacity="0" fill-opacity="0" height="17.3" width="33.9" stroke="#fff" y="11.3" x="43.1" stroke-width="0" fill="#fff"/>
   <text font-size="13.3" text-anchor="middle" y="25.366" x="60" font-family="Arial" fill="rgb(0,0,0)">Done</text>
  </g>
  <g stroke="#000" fill="#000">
   <path d="m80,520l0,10q0,10 10,10l80,0q10,0 10,10l0,10" fill="none"/>
   <path d="m0,0z"/>
   <path d="m187.5,545l-7.5,15l-7.5,-15l7.5,4.5l7.5,-4.5z"/>
  </g>
  <g stroke="#000" fill="#000">
   <path d="m280,420l0,110q0,10 -10,10l-80,0q-10,0 -10,10l0,10" fill="none"/>
   <path d="m0,0z"/>
   <path d="m187.5,545l-7.5,15l-7.5,-15l7.5,4.5l7.5,-4.5z"/>
  </g>
  <g stroke="#000" fill="#000">
   <path d="m140,190l10,0q10,0 10,10l0,280q0,10 -10,10l-10,0" fill="none"/>
  </g>
  <g stroke="#000" fill="#000">
   <path d="m0,0z"/>
  </g>
  <g stroke="#000" fill="#000">
   <path d="m155,497.5l-15,-7.5l15,-7.5l-4.5,7.5l4.5,7.5z"/>
  </g>
  <rect stroke-opacity="0" height="17.3" width="23.8" stroke="#fff" y="172" x="140" stroke-width="0" fill="#fff"/>
  <text font-size="13.3" text-anchor="middle" y="185.559" x="151.577" font-family="Arial" fill="rgb(0,0,0)">Yes</text>
 </g>
</svg>